<?xml version="1.0" standalone="no"?>
<!DOCTYPE svg PUBLIC "-//W3C//DTD SVG 1.1//EN" "http://www.w3.org/Graphics/SVG/1.1/DTD/svg11.dtd">
<svg width="222" height="222" version="1.1" xmlns="http://www.w3.org/2000/svg">
	<desc>https://play.google.com/store/apps/details?id=pmstation.android</desc>
	<g id="elements" fill="black" stroke="none">
		<rect x="0" y="0" width="6" height="6" />
		<rect x="6" y="0" width="6" height="6" />
		<rect x="12" y="0" width="6" height="6" />
		<rect x="18" y="0" width="6" height="6" />
		<rect x="24" y="0" width="6" height="6" />
		<rect x="30" y="0" width="6" height="6" />
		<rect x="36" y="0" width="6" height="6" />
		<rect x="54" y="0" width="6" height="6" />
		<rect x="60" y="0" width="6" height="6" />
		<rect x="78" y="0" width="6" height="6" />
		<rect x="90" y="0" width="6" height="6" />
		<rect x="96" y="0" width="6" height="6" />
		<rect x="108" y="0" width="6" height="6" />
		<rect x="120" y="0" width="6" height="6" />
		<rect x="126" y="0" width="6" height="6" />
		<rect x="132" y="0" width="6" height="6" />
		<rect x="144" y="0" width="6" height="6" />
		<rect x="150" y="0" width="6" height="6" />
		<rect x="168" y="0" width="6" height="6" />
		<rect x="180" y="0" width="6" height="6" />
		<rect x="186" y="0" width="6" height="6" />
		<rect x="192" y="0" width="6" height="6" />
		<rect x="198" y="0" width="6" height="6" />
		<rect x="204" y="0" width="6" height="6" />
		<rect x="210" y="0" width="6" height="6" />
		<rect x="216" y="0" width="6" height="6" />
		<rect x="0" y="6" width="6" height="6" />
		<rect x="36" y="6" width="6" height="6" />
		<rect x="84" y="6" width="6" height="6" />
		<rect x="102" y="6" width="6" height="6" />
		<rect x="108" y="6" width="6" height="6" />
		<rect x="114" y="6" width="6" height="6" />
		<rect x="150" y="6" width="6" height="6" />
		<rect x="156" y="6" width="6" height="6" />
		<rect x="162" y="6" width="6" height="6" />
		<rect x="180" y="6" width="6" height="6" />
		<rect x="216" y="6" width="6" height="6" />
		<rect x="0" y="12" width="6" height="6" />
		<rect x="12" y="12" width="6" height="6" />
		<rect x="18" y="12" width="6" height="6" />
		<rect x="24" y="12" width="6" height="6" />
		<rect x="36" y="12" width="6" height="6" />
		<rect x="48" y="12" width="6" height="6" />
		<rect x="54" y="12" width="6" height="6" />
		<rect x="72" y="12" width="6" height="6" />
		<rect x="78" y="12" width="6" height="6" />
		<rect x="84" y="12" width="6" height="6" />
		<rect x="90" y="12" width="6" height="6" />
		<rect x="96" y="12" width="6" height="6" />
		<rect x="114" y="12" width="6" height="6" />
		<rect x="120" y="12" width="6" height="6" />
		<rect x="126" y="12" width="6" height="6" />
		<rect x="132" y="12" width="6" height="6" />
		<rect x="144" y="12" width="6" height="6" />
		<rect x="156" y="12" width="6" height="6" />
		<rect x="168" y="12" width="6" height="6" />
		<rect x="180" y="12" width="6" height="6" />
		<rect x="192" y="12" width="6" height="6" />
		<rect x="198" y="12" width="6" height="6" />
		<rect x="204" y="12" width="6" height="6" />
		<rect x="216" y="12" width="6" height="6" />
		<rect x="0" y="18" width="6" height="6" />
		<rect x="12" y="18" width="6" height="6" />
		<rect x="18" y="18" width="6" height="6" />
		<rect x="24" y="18" width="6" height="6" />
		<rect x="36" y="18" width="6" height="6" />
		<rect x="48" y="18" width="6" height="6" />
		<rect x="54" y="18" width="6" height="6" />
		<rect x="66" y="18" width="6" height="6" />
		<rect x="78" y="18" width="6" height="6" />
		<rect x="96" y="18" width="6" height="6" />
		<rect x="102" y="18" width="6" height="6" />
		<rect x="108" y="18" width="6" height="6" />
		<rect x="114" y="18" width="6" height="6" />
		<rect x="120" y="18" width="6" height="6" />
		<rect x="132" y="18" width="6" height="6" />
		<rect x="150" y="18" width="6" height="6" />
		<rect x="156" y="18" width="6" height="6" />
		<rect x="180" y="18" width="6" height="6" />
		<rect x="192" y="18" width="6" height="6" />
		<rect x="198" y="18" width="6" height="6" />
		<rect x="204" y="18" width="6" height="6" />
		<rect x="216" y="18" width="6" height="6" />
		<rect x="0" y="24" width="6" height="6" />
		<rect x="12" y="24" width="6" height="6" />
		<rect x="18" y="24" width="6" height="6" />
		<rect x="24" y="24" width="6" height="6" />
		<rect x="36" y="24" width="6" height="6" />
		<rect x="48" y="24" width="6" height="6" />
		<rect x="54" y="24" width="6" height="6" />
		<rect x="108" y="24" width="6" height="6" />
		<rect x="114" y="24" width="6" height="6" />
		<rect x="120" y="24" width="6" height="6" />
		<rect x="132" y="24" width="6" height="6" />
		<rect x="138" y="24" width="6" height="6" />
		<rect x="168" y="24" width="6" height="6" />
		<rect x="180" y="24" width="6" height="6" />
		<rect x="192" y="24" width="6" height="6" />
		<rect x="198" y="24" width="6" height="6" />
		<rect x="204" y="24" width="6" height="6" />
		<rect x="216" y="24" width="6" height="6" />
		<rect x="0" y="30" width="6" height="6" />
		<rect x="36" y="30" width="6" height="6" />
		<rect x="48" y="30" width="6" height="6" />
		<rect x="54" y="30" width="6" height="6" />
		<rect x="60" y="30" width="6" height="6" />
		<rect x="66" y="30" width="6" height="6" />
		<rect x="72" y="30" width="6" height="6" />
		<rect x="78" y="30" width="6" height="6" />
		<rect x="84" y="30" width="6" height="6" />
		<rect x="108" y="30" width="6" height="6" />
		<rect x="132" y="30" width="6" height="6" />
		<rect x="156" y="30" width="6" height="6" />
		<rect x="162" y="30" width="6" height="6" />
		<rect x="168" y="30" width="6" height="6" />
		<rect x="180" y="30" width="6" height="6" />
		<rect x="216" y="30" width="6" height="6" />
		<rect x="0" y="36" width="6" height="6" />
		<rect x="6" y="36" width="6" height="6" />
		<rect x="12" y="36" width="6" height="6" />
		<rect x="18" y="36" width="6" height="6" />
		<rect x="24" y="36" width="6" height="6" />
		<rect x="30" y="36" width="6" height="6" />
		<rect x="36" y="36" width="6" height="6" />
		<rect x="48" y="36" width="6" height="6" />
		<rect x="60" y="36" width="6" height="6" />
		<rect x="72" y="36" width="6" height="6" />
		<rect x="84" y="36" width="6" height="6" />
		<rect x="96" y="36" width="6" height="6" />
		<rect x="108" y="36" width="6" height="6" />
		<rect x="120" y="36" width="6" height="6" />
		<rect x="132" y="36" width="6" height="6" />
		<rect x="144" y="36" width="6" height="6" />
		<rect x="156" y="36" width="6" height="6" />
		<rect x="168" y="36" width="6" height="6" />
		<rect x="180" y="36" width="6" height="6" />
		<rect x="186" y="36" width="6" height="6" />
		<rect x="192" y="36" width="6" height="6" />
		<rect x="198" y="36" width="6" height="6" />
		<rect x="204" y="36" width="6" height="6" />
		<rect x="210" y="36" width="6" height="6" />
		<rect x="216" y="36" width="6" height="6" />
		<rect x="48" y="42" width="6" height="6" />
		<rect x="54" y="42" width="6" height="6" />
		<rect x="60" y="42" width="6" height="6" />
		<rect x="66" y="42" width="6" height="6" />
		<rect x="72" y="42" width="6" height="6" />
		<rect x="96" y="42" width="6" height="6" />
		<rect x="138" y="42" width="6" height="6" />
		<rect x="168" y="42" width="6" height="6" />
		<rect x="0" y="48" width="6" height="6" />
		<rect x="12" y="48" width="6" height="6" />
		<rect x="18" y="48" width="6" height="6" />
		<rect x="24" y="48" width="6" height="6" />
		<rect x="30" y="48" width="6" height="6" />
		<rect x="36" y="48" width="6" height="6" />
		<rect x="60" y="48" width="6" height="6" />
		<rect x="72" y="48" width="6" height="6" />
		<rect x="84" y="48" width="6" height="6" />
		<rect x="90" y="48" width="6" height="6" />
		<rect x="108" y="48" width="6" height="6" />
		<rect x="120" y="48" width="6" height="6" />
		<rect x="126" y="48" width="6" height="6" />
		<rect x="132" y="48" width="6" height="6" />
		<rect x="138" y="48" width="6" height="6" />
		<rect x="144" y="48" width="6" height="6" />
		<rect x="150" y="48" width="6" height="6" />
		<rect x="156" y="48" width="6" height="6" />
		<rect x="180" y="48" width="6" height="6" />
		<rect x="186" y="48" width="6" height="6" />
		<rect x="192" y="48" width="6" height="6" />
		<rect x="198" y="48" width="6" height="6" />
		<rect x="204" y="48" width="6" height="6" />
		<rect x="0" y="54" width="6" height="6" />
		<rect x="6" y="54" width="6" height="6" />
		<rect x="18" y="54" width="6" height="6" />
		<rect x="24" y="54" width="6" height="6" />
		<rect x="42" y="54" width="6" height="6" />
		<rect x="60" y="54" width="6" height="6" />
		<rect x="84" y="54" width="6" height="6" />
		<rect x="90" y="54" width="6" height="6" />
		<rect x="96" y="54" width="6" height="6" />
		<rect x="102" y="54" width="6" height="6" />
		<rect x="126" y="54" width="6" height="6" />
		<rect x="156" y="54" width="6" height="6" />
		<rect x="168" y="54" width="6" height="6" />
		<rect x="174" y="54" width="6" height="6" />
		<rect x="186" y="54" width="6" height="6" />
		<rect x="210" y="54" width="6" height="6" />
		<rect x="0" y="60" width="6" height="6" />
		<rect x="6" y="60" width="6" height="6" />
		<rect x="12" y="60" width="6" height="6" />
		<rect x="24" y="60" width="6" height="6" />
		<rect x="30" y="60" width="6" height="6" />
		<rect x="36" y="60" width="6" height="6" />
		<rect x="42" y="60" width="6" height="6" />
		<rect x="54" y="60" width="6" height="6" />
		<rect x="60" y="60" width="6" height="6" />
		<rect x="78" y="60" width="6" height="6" />
		<rect x="102" y="60" width="6" height="6" />
		<rect x="120" y="60" width="6" height="6" />
		<rect x="126" y="60" width="6" height="6" />
		<rect x="132" y="60" width="6" height="6" />
		<rect x="138" y="60" width="6" height="6" />
		<rect x="144" y="60" width="6" height="6" />
		<rect x="150" y="60" width="6" height="6" />
		<rect x="156" y="60" width="6" height="6" />
		<rect x="162" y="60" width="6" height="6" />
		<rect x="168" y="60" width="6" height="6" />
		<rect x="180" y="60" width="6" height="6" />
		<rect x="186" y="60" width="6" height="6" />
		<rect x="198" y="60" width="6" height="6" />
		<rect x="210" y="60" width="6" height="6" />
		<rect x="216" y="60" width="6" height="6" />
		<rect x="18" y="66" width="6" height="6" />
		<rect x="48" y="66" width="6" height="6" />
		<rect x="66" y="66" width="6" height="6" />
		<rect x="78" y="66" width="6" height="6" />
		<rect x="96" y="66" width="6" height="6" />
		<rect x="126" y="66" width="6" height="6" />
		<rect x="138" y="66" width="6" height="6" />
		<rect x="156" y="66" width="6" height="6" />
		<rect x="162" y="66" width="6" height="6" />
		<rect x="180" y="66" width="6" height="6" />
		<rect x="198" y="66" width="6" height="6" />
		<rect x="216" y="66" width="6" height="6" />
		<rect x="6" y="72" width="6" height="6" />
		<rect x="12" y="72" width="6" height="6" />
		<rect x="18" y="72" width="6" height="6" />
		<rect x="36" y="72" width="6" height="6" />
		<rect x="42" y="72" width="6" height="6" />
		<rect x="60" y="72" width="6" height="6" />
		<rect x="66" y="72" width="6" height="6" />
		<rect x="72" y="72" width="6" height="6" />
		<rect x="78" y="72" width="6" height="6" />
		<rect x="96" y="72" width="6" height="6" />
		<rect x="102" y="72" width="6" height="6" />
		<rect x="120" y="72" width="6" height="6" />
		<rect x="132" y="72" width="6" height="6" />
		<rect x="138" y="72" width="6" height="6" />
		<rect x="144" y="72" width="6" height="6" />
		<rect x="150" y="72" width="6" height="6" />
		<rect x="156" y="72" width="6" height="6" />
		<rect x="162" y="72" width="6" height="6" />
		<rect x="174" y="72" width="6" height="6" />
		<rect x="180" y="72" width="6" height="6" />
		<rect x="186" y="72" width="6" height="6" />
		<rect x="192" y="72" width="6" height="6" />
		<rect x="204" y="72" width="6" height="6" />
		<rect x="210" y="72" width="6" height="6" />
		<rect x="216" y="72" width="6" height="6" />
		<rect x="0" y="78" width="6" height="6" />
		<rect x="42" y="78" width="6" height="6" />
		<rect x="54" y="78" width="6" height="6" />
		<rect x="60" y="78" width="6" height="6" />
		<rect x="66" y="78" width="6" height="6" />
		<rect x="96" y="78" width="6" height="6" />
		<rect x="102" y="78" width="6" height="6" />
		<rect x="108" y="78" width="6" height="6" />
		<rect x="114" y="78" width="6" height="6" />
		<rect x="120" y="78" width="6" height="6" />
		<rect x="126" y="78" width="6" height="6" />
		<rect x="138" y="78" width="6" height="6" />
		<rect x="144" y="78" width="6" height="6" />
		<rect x="168" y="78" width="6" height="6" />
		<rect x="186" y="78" width="6" height="6" />
		<rect x="6" y="84" width="6" height="6" />
		<rect x="12" y="84" width="6" height="6" />
		<rect x="36" y="84" width="6" height="6" />
		<rect x="42" y="84" width="6" height="6" />
		<rect x="66" y="84" width="6" height="6" />
		<rect x="72" y="84" width="6" height="6" />
		<rect x="90" y="84" width="6" height="6" />
		<rect x="102" y="84" width="6" height="6" />
		<rect x="126" y="84" width="6" height="6" />
		<rect x="150" y="84" width="6" height="6" />
		<rect x="162" y="84" width="6" height="6" />
		<rect x="168" y="84" width="6" height="6" />
		<rect x="174" y="84" width="6" height="6" />
		<rect x="180" y="84" width="6" height="6" />
		<rect x="186" y="84" width="6" height="6" />
		<rect x="192" y="84" width="6" height="6" />
		<rect x="198" y="84" width="6" height="6" />
		<rect x="210" y="84" width="6" height="6" />
		<rect x="216" y="84" width="6" height="6" />
		<rect x="6" y="90" width="6" height="6" />
		<rect x="12" y="90" width="6" height="6" />
		<rect x="18" y="90" width="6" height="6" />
		<rect x="24" y="90" width="6" height="6" />
		<rect x="42" y="90" width="6" height="6" />
		<rect x="54" y="90" width="6" height="6" />
		<rect x="72" y="90" width="6" height="6" />
		<rect x="90" y="90" width="6" height="6" />
		<rect x="96" y="90" width="6" height="6" />
		<rect x="102" y="90" width="6" height="6" />
		<rect x="108" y="90" width="6" height="6" />
		<rect x="126" y="90" width="6" height="6" />
		<rect x="132" y="90" width="6" height="6" />
		<rect x="168" y="90" width="6" height="6" />
		<rect x="180" y="90" width="6" height="6" />
		<rect x="186" y="90" width="6" height="6" />
		<rect x="192" y="90" width="6" height="6" />
		<rect x="210" y="90" width="6" height="6" />
		<rect x="216" y="90" width="6" height="6" />
		<rect x="6" y="96" width="6" height="6" />
		<rect x="18" y="96" width="6" height="6" />
		<rect x="24" y="96" width="6" height="6" />
		<rect x="30" y="96" width="6" height="6" />
		<rect x="36" y="96" width="6" height="6" />
		<rect x="48" y="96" width="6" height="6" />
		<rect x="54" y="96" width="6" height="6" />
		<rect x="60" y="96" width="6" height="6" />
		<rect x="66" y="96" width="6" height="6" />
		<rect x="72" y="96" width="6" height="6" />
		<rect x="78" y="96" width="6" height="6" />
		<rect x="96" y="96" width="6" height="6" />
		<rect x="126" y="96" width="6" height="6" />
		<rect x="138" y="96" width="6" height="6" />
		<rect x="150" y="96" width="6" height="6" />
		<rect x="156" y="96" width="6" height="6" />
		<rect x="162" y="96" width="6" height="6" />
		<rect x="174" y="96" width="6" height="6" />
		<rect x="180" y="96" width="6" height="6" />
		<rect x="192" y="96" width="6" height="6" />
		<rect x="204" y="96" width="6" height="6" />
		<rect x="12" y="102" width="6" height="6" />
		<rect x="48" y="102" width="6" height="6" />
		<rect x="54" y="102" width="6" height="6" />
		<rect x="60" y="102" width="6" height="6" />
		<rect x="66" y="102" width="6" height="6" />
		<rect x="72" y="102" width="6" height="6" />
		<rect x="90" y="102" width="6" height="6" />
		<rect x="108" y="102" width="6" height="6" />
		<rect x="120" y="102" width="6" height="6" />
		<rect x="132" y="102" width="6" height="6" />
		<rect x="144" y="102" width="6" height="6" />
		<rect x="150" y="102" width="6" height="6" />
		<rect x="168" y="102" width="6" height="6" />
		<rect x="186" y="102" width="6" height="6" />
		<rect x="204" y="102" width="6" height="6" />
		<rect x="210" y="102" width="6" height="6" />
		<rect x="6" y="108" width="6" height="6" />
		<rect x="18" y="108" width="6" height="6" />
		<rect x="36" y="108" width="6" height="6" />
		<rect x="60" y="108" width="6" height="6" />
		<rect x="84" y="108" width="6" height="6" />
		<rect x="90" y="108" width="6" height="6" />
		<rect x="96" y="108" width="6" height="6" />
		<rect x="114" y="108" width="6" height="6" />
		<rect x="132" y="108" width="6" height="6" />
		<rect x="156" y="108" width="6" height="6" />
		<rect x="162" y="108" width="6" height="6" />
		<rect x="174" y="108" width="6" height="6" />
		<rect x="210" y="108" width="6" height="6" />
		<rect x="216" y="108" width="6" height="6" />
		<rect x="6" y="114" width="6" height="6" />
		<rect x="12" y="114" width="6" height="6" />
		<rect x="48" y="114" width="6" height="6" />
		<rect x="54" y="114" width="6" height="6" />
		<rect x="60" y="114" width="6" height="6" />
		<rect x="90" y="114" width="6" height="6" />
		<rect x="108" y="114" width="6" height="6" />
		<rect x="114" y="114" width="6" height="6" />
		<rect x="120" y="114" width="6" height="6" />
		<rect x="126" y="114" width="6" height="6" />
		<rect x="132" y="114" width="6" height="6" />
		<rect x="144" y="114" width="6" height="6" />
		<rect x="168" y="114" width="6" height="6" />
		<rect x="180" y="114" width="6" height="6" />
		<rect x="186" y="114" width="6" height="6" />
		<rect x="216" y="114" width="6" height="6" />
		<rect x="0" y="120" width="6" height="6" />
		<rect x="24" y="120" width="6" height="6" />
		<rect x="36" y="120" width="6" height="6" />
		<rect x="60" y="120" width="6" height="6" />
		<rect x="66" y="120" width="6" height="6" />
		<rect x="90" y="120" width="6" height="6" />
		<rect x="102" y="120" width="6" height="6" />
		<rect x="114" y="120" width="6" height="6" />
		<rect x="120" y="120" width="6" height="6" />
		<rect x="132" y="120" width="6" height="6" />
		<rect x="144" y="120" width="6" height="6" />
		<rect x="150" y="120" width="6" height="6" />
		<rect x="156" y="120" width="6" height="6" />
		<rect x="174" y="120" width="6" height="6" />
		<rect x="180" y="120" width="6" height="6" />
		<rect x="192" y="120" width="6" height="6" />
		<rect x="204" y="120" width="6" height="6" />
		<rect x="0" y="126" width="6" height="6" />
		<rect x="6" y="126" width="6" height="6" />
		<rect x="24" y="126" width="6" height="6" />
		<rect x="48" y="126" width="6" height="6" />
		<rect x="54" y="126" width="6" height="6" />
		<rect x="66" y="126" width="6" height="6" />
		<rect x="78" y="126" width="6" height="6" />
		<rect x="84" y="126" width="6" height="6" />
		<rect x="96" y="126" width="6" height="6" />
		<rect x="108" y="126" width="6" height="6" />
		<rect x="114" y="126" width="6" height="6" />
		<rect x="120" y="126" width="6" height="6" />
		<rect x="132" y="126" width="6" height="6" />
		<rect x="138" y="126" width="6" height="6" />
		<rect x="150" y="126" width="6" height="6" />
		<rect x="168" y="126" width="6" height="6" />
		<rect x="198" y="126" width="6" height="6" />
		<rect x="12" y="132" width="6" height="6" />
		<rect x="24" y="132" width="6" height="6" />
		<rect x="36" y="132" width="6" height="6" />
		<rect x="42" y="132" width="6" height="6" />
		<rect x="48" y="132" width="6" height="6" />
		<rect x="78" y="132" width="6" height="6" />
		<rect x="90" y="132" width="6" height="6" />
		<rect x="96" y="132" width="6" height="6" />
		<rect x="108" y="132" width="6" height="6" />
		<rect x="120" y="132" width="6" height="6" />
		<rect x="132" y="132" width="6" height="6" />
		<rect x="150" y="132" width="6" height="6" />
		<rect x="156" y="132" width="6" height="6" />
		<rect x="162" y="132" width="6" height="6" />
		<rect x="186" y="132" width="6" height="6" />
		<rect x="192" y="132" width="6" height="6" />
		<rect x="198" y="132" width="6" height="6" />
		<rect x="210" y="132" width="6" height="6" />
		<rect x="216" y="132" width="6" height="6" />
		<rect x="0" y="138" width="6" height="6" />
		<rect x="18" y="138" width="6" height="6" />
		<rect x="24" y="138" width="6" height="6" />
		<rect x="30" y="138" width="6" height="6" />
		<rect x="66" y="138" width="6" height="6" />
		<rect x="72" y="138" width="6" height="6" />
		<rect x="78" y="138" width="6" height="6" />
		<rect x="84" y="138" width="6" height="6" />
		<rect x="90" y="138" width="6" height="6" />
		<rect x="138" y="138" width="6" height="6" />
		<rect x="156" y="138" width="6" height="6" />
		<rect x="168" y="138" width="6" height="6" />
		<rect x="174" y="138" width="6" height="6" />
		<rect x="180" y="138" width="6" height="6" />
		<rect x="186" y="138" width="6" height="6" />
		<rect x="192" y="138" width="6" height="6" />
		<rect x="210" y="138" width="6" height="6" />
		<rect x="6" y="144" width="6" height="6" />
		<rect x="12" y="144" width="6" height="6" />
		<rect x="18" y="144" width="6" height="6" />
		<rect x="36" y="144" width="6" height="6" />
		<rect x="48" y="144" width="6" height="6" />
		<rect x="54" y="144" width="6" height="6" />
		<rect x="66" y="144" width="6" height="6" />
		<rect x="72" y="144" width="6" height="6" />
		<rect x="78" y="144" width="6" height="6" />
		<rect x="84" y="144" width="6" height="6" />
		<rect x="108" y="144" width="6" height="6" />
		<rect x="120" y="144" width="6" height="6" />
		<rect x="126" y="144" width="6" height="6" />
		<rect x="132" y="144" width="6" height="6" />
		<rect x="138" y="144" width="6" height="6" />
		<rect x="144" y="144" width="6" height="6" />
		<rect x="150" y="144" width="6" height="6" />
		<rect x="156" y="144" width="6" height="6" />
		<rect x="174" y="144" width="6" height="6" />
		<rect x="180" y="144" width="6" height="6" />
		<rect x="186" y="144" width="6" height="6" />
		<rect x="192" y="144" width="6" height="6" />
		<rect x="204" y="144" width="6" height="6" />
		<rect x="210" y="144" width="6" height="6" />
		<rect x="0" y="150" width="6" height="6" />
		<rect x="18" y="150" width="6" height="6" />
		<rect x="30" y="150" width="6" height="6" />
		<rect x="42" y="150" width="6" height="6" />
		<rect x="54" y="150" width="6" height="6" />
		<rect x="60" y="150" width="6" height="6" />
		<rect x="66" y="150" width="6" height="6" />
		<rect x="90" y="150" width="6" height="6" />
		<rect x="96" y="150" width="6" height="6" />
		<rect x="126" y="150" width="6" height="6" />
		<rect x="186" y="150" width="6" height="6" />
		<rect x="198" y="150" width="6" height="6" />
		<rect x="0" y="156" width="6" height="6" />
		<rect x="30" y="156" width="6" height="6" />
		<rect x="36" y="156" width="6" height="6" />
		<rect x="42" y="156" width="6" height="6" />
		<rect x="60" y="156" width="6" height="6" />
		<rect x="66" y="156" width="6" height="6" />
		<rect x="78" y="156" width="6" height="6" />
		<rect x="84" y="156" width="6" height="6" />
		<rect x="120" y="156" width="6" height="6" />
		<rect x="138" y="156" width="6" height="6" />
		<rect x="144" y="156" width="6" height="6" />
		<rect x="156" y="156" width="6" height="6" />
		<rect x="162" y="156" width="6" height="6" />
		<rect x="180" y="156" width="6" height="6" />
		<rect x="186" y="156" width="6" height="6" />
		<rect x="192" y="156" width="6" height="6" />
		<rect x="198" y="156" width="6" height="6" />
		<rect x="210" y="156" width="6" height="6" />
		<rect x="216" y="156" width="6" height="6" />
		<rect x="0" y="162" width="6" height="6" />
		<rect x="12" y="162" width="6" height="6" />
		<rect x="24" y="162" width="6" height="6" />
		<rect x="48" y="162" width="6" height="6" />
		<rect x="54" y="162" width="6" height="6" />
		<rect x="72" y="162" width="6" height="6" />
		<rect x="96" y="162" width="6" height="6" />
		<rect x="126" y="162" width="6" height="6" />
		<rect x="138" y="162" width="6" height="6" />
		<rect x="156" y="162" width="6" height="6" />
		<rect x="168" y="162" width="6" height="6" />
		<rect x="174" y="162" width="6" height="6" />
		<rect x="180" y="162" width="6" height="6" />
		<rect x="210" y="162" width="6" height="6" />
		<rect x="0" y="168" width="6" height="6" />
		<rect x="12" y="168" width="6" height="6" />
		<rect x="24" y="168" width="6" height="6" />
		<rect x="36" y="168" width="6" height="6" />
		<rect x="42" y="168" width="6" height="6" />
		<rect x="48" y="168" width="6" height="6" />
		<rect x="54" y="168" width="6" height="6" />
		<rect x="72" y="168" width="6" height="6" />
		<rect x="84" y="168" width="6" height="6" />
		<rect x="102" y="168" width="6" height="6" />
		<rect x="132" y="168" width="6" height="6" />
		<rect x="138" y="168" width="6" height="6" />
		<rect x="144" y="168" width="6" height="6" />
		<rect x="150" y="168" width="6" height="6" />
		<rect x="168" y="168" width="6" height="6" />
		<rect x="174" y="168" width="6" height="6" />
		<rect x="180" y="168" width="6" height="6" />
		<rect x="186" y="168" width="6" height="6" />
		<rect x="192" y="168" width="6" height="6" />
		<rect x="198" y="168" width="6" height="6" />
		<rect x="204" y="168" width="6" height="6" />
		<rect x="210" y="168" width="6" height="6" />
		<rect x="48" y="174" width="6" height="6" />
		<rect x="54" y="174" width="6" height="6" />
		<rect x="60" y="174" width="6" height="6" />
		<rect x="66" y="174" width="6" height="6" />
		<rect x="72" y="174" width="6" height="6" />
		<rect x="78" y="174" width="6" height="6" />
		<rect x="96" y="174" width="6" height="6" />
		<rect x="102" y="174" width="6" height="6" />
		<rect x="114" y="174" width="6" height="6" />
		<rect x="120" y="174" width="6" height="6" />
		<rect x="126" y="174" width="6" height="6" />
		<rect x="138" y="174" width="6" height="6" />
		<rect x="150" y="174" width="6" height="6" />
		<rect x="162" y="174" width="6" height="6" />
		<rect x="168" y="174" width="6" height="6" />
		<rect x="192" y="174" width="6" height="6" />
		<rect x="198" y="174" width="6" height="6" />
		<rect x="210" y="174" width="6" height="6" />
		<rect x="0" y="180" width="6" height="6" />
		<rect x="6" y="180" width="6" height="6" />
		<rect x="12" y="180" width="6" height="6" />
		<rect x="18" y="180" width="6" height="6" />
		<rect x="24" y="180" width="6" height="6" />
		<rect x="30" y="180" width="6" height="6" />
		<rect x="36" y="180" width="6" height="6" />
		<rect x="54" y="180" width="6" height="6" />
		<rect x="90" y="180" width="6" height="6" />
		<rect x="96" y="180" width="6" height="6" />
		<rect x="102" y="180" width="6" height="6" />
		<rect x="120" y="180" width="6" height="6" />
		<rect x="126" y="180" width="6" height="6" />
		<rect x="168" y="180" width="6" height="6" />
		<rect x="180" y="180" width="6" height="6" />
		<rect x="192" y="180" width="6" height="6" />
		<rect x="204" y="180" width="6" height="6" />
		<rect x="216" y="180" width="6" height="6" />
		<rect x="0" y="186" width="6" height="6" />
		<rect x="36" y="186" width="6" height="6" />
		<rect x="48" y="186" width="6" height="6" />
		<rect x="66" y="186" width="6" height="6" />
		<rect x="72" y="186" width="6" height="6" />
		<rect x="78" y="186" width="6" height="6" />
		<rect x="90" y="186" width="6" height="6" />
		<rect x="102" y="186" width="6" height="6" />
		<rect x="108" y="186" width="6" height="6" />
		<rect x="114" y="186" width="6" height="6" />
		<rect x="120" y="186" width="6" height="6" />
		<rect x="126" y="186" width="6" height="6" />
		<rect x="132" y="186" width="6" height="6" />
		<rect x="138" y="186" width="6" height="6" />
		<rect x="144" y="186" width="6" height="6" />
		<rect x="156" y="186" width="6" height="6" />
		<rect x="162" y="186" width="6" height="6" />
		<rect x="168" y="186" width="6" height="6" />
		<rect x="192" y="186" width="6" height="6" />
		<rect x="198" y="186" width="6" height="6" />
		<rect x="210" y="186" width="6" height="6" />
		<rect x="0" y="192" width="6" height="6" />
		<rect x="12" y="192" width="6" height="6" />
		<rect x="18" y="192" width="6" height="6" />
		<rect x="24" y="192" width="6" height="6" />
		<rect x="36" y="192" width="6" height="6" />
		<rect x="48" y="192" width="6" height="6" />
		<rect x="54" y="192" width="6" height="6" />
		<rect x="60" y="192" width="6" height="6" />
		<rect x="66" y="192" width="6" height="6" />
		<rect x="72" y="192" width="6" height="6" />
		<rect x="78" y="192" width="6" height="6" />
		<rect x="90" y="192" width="6" height="6" />
		<rect x="96" y="192" width="6" height="6" />
		<rect x="114" y="192" width="6" height="6" />
		<rect x="126" y="192" width="6" height="6" />
		<rect x="144" y="192" width="6" height="6" />
		<rect x="150" y="192" width="6" height="6" />
		<rect x="156" y="192" width="6" height="6" />
		<rect x="162" y="192" width="6" height="6" />
		<rect x="168" y="192" width="6" height="6" />
		<rect x="174" y="192" width="6" height="6" />
		<rect x="180" y="192" width="6" height="6" />
		<rect x="186" y="192" width="6" height="6" />
		<rect x="192" y="192" width="6" height="6" />
		<rect x="204" y="192" width="6" height="6" />
		<rect x="216" y="192" width="6" height="6" />
		<rect x="0" y="198" width="6" height="6" />
		<rect x="12" y="198" width="6" height="6" />
		<rect x="18" y="198" width="6" height="6" />
		<rect x="24" y="198" width="6" height="6" />
		<rect x="36" y="198" width="6" height="6" />
		<rect x="48" y="198" width="6" height="6" />
		<rect x="60" y="198" width="6" height="6" />
		<rect x="66" y="198" width="6" height="6" />
		<rect x="78" y="198" width="6" height="6" />
		<rect x="84" y="198" width="6" height="6" />
		<rect x="90" y="198" width="6" height="6" />
		<rect x="108" y="198" width="6" height="6" />
		<rect x="120" y="198" width="6" height="6" />
		<rect x="126" y="198" width="6" height="6" />
		<rect x="132" y="198" width="6" height="6" />
		<rect x="144" y="198" width="6" height="6" />
		<rect x="150" y="198" width="6" height="6" />
		<rect x="174" y="198" width="6" height="6" />
		<rect x="180" y="198" width="6" height="6" />
		<rect x="192" y="198" width="6" height="6" />
		<rect x="204" y="198" width="6" height="6" />
		<rect x="210" y="198" width="6" height="6" />
		<rect x="0" y="204" width="6" height="6" />
		<rect x="12" y="204" width="6" height="6" />
		<rect x="18" y="204" width="6" height="6" />
		<rect x="24" y="204" width="6" height="6" />
		<rect x="36" y="204" width="6" height="6" />
		<rect x="48" y="204" width="6" height="6" />
		<rect x="66" y="204" width="6" height="6" />
		<rect x="72" y="204" width="6" height="6" />
		<rect x="90" y="204" width="6" height="6" />
		<rect x="96" y="204" width="6" height="6" />
		<rect x="114" y="204" width="6" height="6" />
		<rect x="126" y="204" width="6" height="6" />
		<rect x="132" y="204" width="6" height="6" />
		<rect x="144" y="204" width="6" height="6" />
		<rect x="150" y="204" width="6" height="6" />
		<rect x="156" y="204" width="6" height="6" />
		<rect x="162" y="204" width="6" height="6" />
		<rect x="168" y="204" width="6" height="6" />
		<rect x="174" y="204" width="6" height="6" />
		<rect x="216" y="204" width="6" height="6" />
		<rect x="0" y="210" width="6" height="6" />
		<rect x="36" y="210" width="6" height="6" />
		<rect x="84" y="210" width="6" height="6" />
		<rect x="90" y="210" width="6" height="6" />
		<rect x="108" y="210" width="6" height="6" />
		<rect x="114" y="210" width="6" height="6" />
		<rect x="120" y="210" width="6" height="6" />
		<rect x="126" y="210" width="6" height="6" />
		<rect x="132" y="210" width="6" height="6" />
		<rect x="162" y="210" width="6" height="6" />
		<rect x="168" y="210" width="6" height="6" />
		<rect x="174" y="210" width="6" height="6" />
		<rect x="192" y="210" width="6" height="6" />
		<rect x="216" y="210" width="6" height="6" />
		<rect x="0" y="216" width="6" height="6" />
		<rect x="6" y="216" width="6" height="6" />
		<rect x="12" y="216" width="6" height="6" />
		<rect x="18" y="216" width="6" height="6" />
		<rect x="24" y="216" width="6" height="6" />
		<rect x="30" y="216" width="6" height="6" />
		<rect x="36" y="216" width="6" height="6" />
		<rect x="48" y="216" width="6" height="6" />
		<rect x="60" y="216" width="6" height="6" />
		<rect x="66" y="216" width="6" height="6" />
		<rect x="72" y="216" width="6" height="6" />
		<rect x="84" y="216" width="6" height="6" />
		<rect x="90" y="216" width="6" height="6" />
		<rect x="102" y="216" width="6" height="6" />
		<rect x="114" y="216" width="6" height="6" />
		<rect x="144" y="216" width="6" height="6" />
		<rect x="150" y="216" width="6" height="6" />
		<rect x="156" y="216" width="6" height="6" />
		<rect x="174" y="216" width="6" height="6" />
		<rect x="192" y="216" width="6" height="6" />
		<rect x="204" y="216" width="6" height="6" />
		<rect x="210" y="216" width="6" height="6" />
		<rect x="216" y="216" width="6" height="6" />
	</g>
</svg>
